<?xml version="1.0" encoding="utf-8"?>
<!-- Generator: Adobe Illustrator 19.2.1, SVG Export Plug-In . SVG Version: 6.00 Build 0)  -->
<!DOCTYPE svg PUBLIC "-//W3C//DTD SVG 1.1//EN" "http://www.w3.org/Graphics/SVG/1.1/DTD/svg11.dtd">
<svg version="1.1" id="Layer_1" xmlns="http://www.w3.org/2000/svg" xmlns:xlink="http://www.w3.org/1999/xlink" x="0px" y="0px"
	 viewBox="0 0 139 86" style="enable-background:new 0 0 139 86;" xml:space="preserve">
<style type="text/css">
	.st0{fill:#E1007C;}
	.st1{fill:#662580;}
	.st2{opacity:0.16;enable-background:new    ;}
	.st3{fill:#FFFFFF;}
</style>
<title>bogof-logos</title>
<path class="st0" d="M11.5,44.4c-1.9,0-4-0.1-6.4-0.7c-0.4-0.1-0.8-0.4-0.8-0.9L0,8.7C-0.1,8.1,0.3,7.6,1,7.5l6.9-0.8
	C8.4,6.5,8.9,6.9,9,7.6l1.1,8.5c0.9-0.3,1.9-0.5,2.6-0.7c7.8-1.1,15,4.8,16,12.7c1.2,9.3-5.7,15.1-12.7,16
	C14.7,44.3,13.3,44.4,11.5,44.4z M11.1,24.3l1.5,11.9c0.8,0,1.6-0.1,2.3-0.1H15c1.5-0.1,2.6-0.9,3.6-2c0.9-1.3,1.5-3,1.2-4.8
	c-0.5-3.4-3.4-6-6.9-5.4C12.3,23.9,11.8,24,11.1,24.3z"/>
<g>
	<path class="st0" d="M44.1,39.8c-0.1,0-0.4,0-0.5,0c-4,0-7.4-1.3-9.9-3.4c-2.8-2.4-4.1-5.8-4.1-9.8l0.3-14.4c0-0.5,0.4-1.1,1.1-1.1
		l6.9,0.1c0.3,0,0.5,0.1,0.7,0.3c0.1,0.1,0.3,0.4,0.3,0.7l-0.3,14.4c-0.1,1.6,0.4,2.9,1.6,3.7c1.5,1.2,4,1.5,6.4,0.9l0.3-18.9
		c0-0.3,0.1-0.5,0.3-0.7c0.1-0.1,0.4-0.3,0.7-0.3l7,0.1c0.5,0,1.1,0.5,1.1,1.1L55.2,37c0,0.4-0.3,0.8-0.7,0.9
		C50.9,39.2,47.5,39.8,44.1,39.8z"/>
</g>
<g>
	<path class="st0" d="M71.6,39.8c-8.7,0-13.8-6.6-14.3-13.4c-0.5-7.3,4-15,13.4-15.8c4.2-0.3,7.3,0.7,10.7,3.6
		c0.4,0.4,0.5,0.9,0.1,1.5L78,20.3c-0.1,0.3-0.4,0.4-0.7,0.4c-0.3,0-0.5,0-0.8-0.3c-2.3-1.7-5-2.1-7.3-0.9c-2.1,1.1-3.3,3.4-3,6.2
		c0.1,2.6,1.9,4.9,4.2,5.6c2.5,0.8,5.2-0.1,7-2.4c0.1-0.3,0.4-0.4,0.7-0.4c0.3,0,0.5,0,0.8,0.3l4.2,3.7c0.4,0.4,0.4,0.9,0.1,1.3
		c-2.5,3.7-5.7,5.4-10.3,5.8C72.6,39.8,72,39.8,71.6,39.8z"/>
</g>
<g>
	<path class="st0" d="M86.3,38.8c-0.3,0-0.4-0.1-0.7-0.1c-0.3-0.1-0.4-0.4-0.4-0.7L79.6,2.7c0-0.3,0-0.5,0.1-0.8s0.4-0.4,0.7-0.4
		l6.8-1.1c0.5-0.1,1.1,0.3,1.2,0.8l2.5,15.9l5.4-7.9c0.1-0.3,0.4-0.4,0.7-0.4l8.2-1.3c0.4,0,0.8,0.1,1.1,0.4c0.3,0.3,0.3,0.8,0,1.1
		l-8.1,11.9l12.4,12.4c0.3,0.3,0.4,0.7,0.3,1.1c-0.1,0.4-0.4,0.7-0.8,0.7l-7.5,1.2c-0.3,0-0.7,0-0.9-0.3l-8.3-8.5l-0.4,0.7l1.3,8.5
		c0.1,0.5-0.3,1.1-0.8,1.2l-6.8,1.1C86.5,38.8,86.3,38.8,86.3,38.8z"/>
</g>
<g>
	<path class="st0" d="M110.1,50.2c-0.9,0-2-0.1-2.9-0.3c-0.5-0.1-0.8-0.5-0.8-0.9l-0.1-5.3c0-0.3,0.1-0.5,0.3-0.8
		c0.1-0.1,0.4-0.3,0.7-0.3c3.7,0,3.8-0.3,4.8-4.8c-1.5-3.4-3-7.1-4.6-10.7c-1.9-4.4-3.8-8.9-5.7-13c-0.1-0.3-0.1-0.7,0.1-0.9
		c0.1-0.3,0.5-0.4,0.8-0.4l7.5-0.1c0.4,0,0.8,0.3,0.9,0.7l5.4,13v0.1l0.4,1.5l0.3-1.6v-0.1l4.4-13c0.1-0.4,0.5-0.7,0.9-0.7l7.5-0.1
		c0.4,0,0.7,0.1,0.8,0.4s0.3,0.7,0.1,0.9l-11.3,30.4C118.5,48.6,114.2,50.2,110.1,50.2z"/>
</g>
<g>
	<g>
		<g>
			<path class="st1" d="M40,77c-2.5,0-5.8-0.1-9.8-1.6c-0.4-0.1-0.7-0.5-0.7-0.9V43.2c0-0.5,0.4-1.1,1.1-1.1H37
				c0.5,0,1.1,0.4,1.1,1.1v7.5c0.9-0.1,1.7-0.3,2.4-0.3c7.1,0,13,6,13,13.4C53.4,72.5,46.5,77,40,77z M37.9,69.3
				c0.7,0.1,1.3,0.1,2,0.1H40c1.3,0,2.5-0.5,3.3-1.3c1.1-1.1,1.6-2.5,1.6-4.1c0-3.2-2.4-5.6-5.4-5.6c-0.5,0-1.1,0.1-1.7,0.3
				L37.9,69.3L37.9,69.3z"/>
		</g>
		<g>
			<path class="st1" d="M60.9,76.6h-6.4c-0.5,0-1.1-0.4-1.1-1.1V52.2c0-0.5,0.4-1.1,1.1-1.1h6.4c0.5,0,1.1,0.4,1.1,1.1v23.3
				C61.8,76.2,61.4,76.6,60.9,76.6z M60.8,50.5h-6.2c-0.5,0-1.1-0.4-1.1-1.1v-6.2c0-0.5,0.4-1.1,1.1-1.1h6.2c0.5,0,1.1,0.4,1.1,1.1
				v6.2C61.8,50.1,61.4,50.5,60.8,50.5z"/>
		</g>
		<g>
			<path class="st1" d="M86.1,76.6h-6.2c-0.5,0-1.1-0.4-1.1-1.1V62.1c0-1.6-0.5-2.6-1.6-3.4c-1.3-0.9-3.4-1.1-5.4-0.4v17.2
				c0,0.5-0.4,1.1-1.1,1.1h-6.4c-0.5,0-1.1-0.4-1.1-1.1V53.4c0-0.4,0.3-0.8,0.7-0.9c5.4-2,13.5-3,18.7,0.5c2.9,2,4.4,5,4.4,9.1v13.4
				C87,76.2,86.6,76.6,86.1,76.6z"/>
		</g>
		<g>
			<path class="st1" d="M100.1,85.6c-4.1,0-7.9-1.7-11.1-4.9c-0.4-0.4-0.4-0.9-0.1-1.3l3-4c0.1-0.3,0.4-0.4,0.7-0.4s0.5,0,0.8,0.3
				c2.3,1.9,4.8,2.8,7.3,2.6c1.7-0.1,2.5-0.7,2.8-1.5c-0.7,0.1-1.3,0.1-2,0.1c-4.1,0-7.5-1.3-9.9-3.8c-2.4-2.4-3.7-5.7-3.7-9.3
				c0.1-8.3,6.9-13,13.2-13c2.4,0,5.8,0.1,9.8,1.7c0.4,0.1,0.7,0.5,0.7,0.9v21.2C111.5,82.4,105.6,85.4,100.1,85.6L100.1,85.6z
				 M101,58c-3.6,0-4.9,3.4-4.9,5.6c0,2.6,1.7,5.4,4.9,5.4c0.8,0,1.6,0,2.3-0.1V58.2C102.5,58.2,101.7,58,101,58z"/>
		</g>
		<g>
			<path class="st1" d="M125.6,77.2c-7.7,0-13.4-5.7-13.4-13.4c0-7.8,5.7-13.4,13.4-13.4c7.7,0,13.4,5.7,13.4,13.4
				C138.9,71.5,133.3,77.2,125.6,77.2z"/>
		</g>
	</g>
</g>
<path class="st2" d="M113.6,66.6c-0.7-2.1-0.7-4.6-0.3-6.8c0.7-2.6,2.3-4.8,4.6-6.2c4-2.8,8.6-0.7,11.9,2.1
	c3.4,2.9,4.5,8.3,2.5,12.8c-1.7,4.1-5.4,5.4-9.4,5.8l0,0l0,0c-0.1,0-0.3,0-0.4-0.1c0,0,0,0-0.1,0s-0.3,0-0.4-0.1l0,0
	c-0.1,0-0.3,0-0.4-0.1c0,0,0,0-0.1,0s-0.3,0-0.4-0.1l0,0c-0.1,0-0.3-0.1-0.4-0.1l0,0c-0.1,0-0.3-0.1-0.4-0.1l0,0
	c-0.1,0-0.3-0.1-0.4-0.1l0,0c-0.1,0-0.3-0.1-0.4-0.1l0,0c-0.1,0-0.3-0.1-0.4-0.1l0,0c-0.1,0-0.3-0.1-0.4-0.1l0,0
	c-0.1-0.1-0.3-0.1-0.4-0.3l0,0c-0.1-0.1-0.3-0.1-0.4-0.3l0,0c-0.1-0.1-0.3-0.1-0.4-0.3l0,0c-0.1-0.1-0.3-0.1-0.3-0.3l0,0
	c-0.1-0.1-0.1-0.1-0.3-0.3l0,0c-0.1-0.1-0.3-0.3-0.3-0.3l0,0l0,0c-0.1-0.1-0.3-0.3-0.3-0.3l0,0c-0.1-0.1-0.3-0.3-0.3-0.3l0,0
	c-0.1-0.1-0.3-0.3-0.3-0.4l0,0c-0.1-0.1-0.3-0.3-0.3-0.4l0,0c-0.1-0.1-0.1-0.3-0.3-0.4l0,0c-0.1-0.1-0.1-0.3-0.3-0.4l0,0
	c-0.1-0.1-0.1-0.3-0.3-0.4l0,0c-0.1-0.1-0.1-0.3-0.3-0.4l0,0c-0.1-0.1-0.1-0.3-0.3-0.4l0,0c-0.4-0.5-0.4-0.7-0.5-0.8l0,0
	c-0.1-0.1-0.1-0.3-0.1-0.5C113.7,66.8,113.7,66.6,113.6,66.6z"/>
<circle class="st3" cx="125.8" cy="64" r="6.5"/>
<g>
	<path class="st1" d="M124.3,68.2l0.7-6l-1.7-0.1l0.1-1.5c1.5,0.1,2-0.1,2.4-1.1l1.6,0.1l-0.9,8.7L124.3,68.2z"/>
</g>
</svg>
